<svg xmlns="http://www.w3.org/2000/svg" xmlns:xlink="http://www.w3.org/1999/xlink" width="350" zoomAndPan="magnify" viewBox="0 0 375 374.999991" height="350" preserveAspectRatio="xMidYMid meet" version="1.0"><defs><g/><clipPath id="a486b0af2a"><path d="M 86 153 L 118.285156 153 L 118.285156 239 L 86 239 Z M 86 153 " clip-rule="nonzero"/></clipPath><clipPath id="1c7f69f61c"><path d="M 49 138.503906 L 83 138.503906 L 83 207 L 49 207 Z M 49 138.503906 " clip-rule="nonzero"/></clipPath><clipPath id="47e30acf52"><path d="M 49 174 L 83 174 L 83 242.003906 L 49 242.003906 Z M 49 174 " clip-rule="nonzero"/></clipPath><clipPath id="02efbc4996"><path d="M 14.785156 142 L 46 142 L 46 227 L 14.785156 227 Z M 14.785156 142 " clip-rule="nonzero"/></clipPath></defs><path fill="#101e42" d="M 86.527344 142.503906 L 86.527344 169.882812 L 102.941406 153.46875 C 98.21875 148.824219 92.695312 145.09375 86.527344 142.503906 Z M 86.527344 142.503906 " fill-opacity="1" fill-rule="nonzero"/><g clip-path="url(#a486b0af2a)"><path fill="#b8c8cf" d="M 102.902344 153.46875 L 86.488281 169.882812 L 86.488281 238.042969 C 105.148438 230.238281 118.246094 211.808594 118.246094 190.292969 C 118.285156 175.859375 112.421875 162.835938 102.902344 153.46875 Z M 102.902344 153.46875 " fill-opacity="1" fill-rule="nonzero"/></g><g clip-path="url(#1c7f69f61c)"><path fill="#101e42" d="M 82.339844 140.980469 C 77.351562 139.378906 72.058594 138.503906 66.535156 138.503906 C 60.710938 138.503906 55.113281 139.496094 49.894531 141.246094 L 49.894531 206.476562 L 82.339844 174.03125 Z M 82.339844 140.980469 " fill-opacity="1" fill-rule="nonzero"/></g><g clip-path="url(#47e30acf52)"><path fill="#b8c8cf" d="M 49.894531 206.476562 L 49.894531 239.261719 C 55.113281 241.050781 60.710938 242.003906 66.535156 242.003906 C 72.058594 242.003906 77.351562 241.128906 82.339844 239.527344 L 82.339844 174.03125 Z M 49.894531 206.476562 " fill-opacity="1" fill-rule="nonzero"/></g><g clip-path="url(#02efbc4996)"><path fill="#101e42" d="M 45.746094 142.882812 C 27.503906 150.878906 14.785156 169.082031 14.785156 190.253906 C 14.785156 204.457031 20.496094 217.289062 29.75 226.621094 L 45.746094 210.625 Z M 45.746094 142.882812 " fill-opacity="1" fill-rule="nonzero"/></g><path fill="#b8c8cf" d="M 29.75 226.660156 C 34.320312 231.265625 39.726562 235.035156 45.746094 237.664062 L 45.746094 210.664062 Z M 29.75 226.660156 " fill-opacity="1" fill-rule="nonzero"/><g fill="#101e42" fill-opacity="1"><g transform="translate(135.892788, 166.325795)"><g><path d="M 11.84375 0.324219 C 17.300781 0.324219 21.765625 -2.929688 21.765625 -8.324219 C 21.765625 -17.804688 7.941406 -15.984375 7.941406 -21.359375 C 7.941406 -23.179688 9.519531 -24.414062 11.539062 -24.414062 C 13.460938 -24.414062 15.15625 -23.300781 16.148438 -21.359375 L 20.410156 -23.96875 C 18.449219 -27.445312 15.238281 -28.980469 11.722656 -28.980469 C 6.910156 -28.980469 2.808594 -26.152344 2.808594 -21.097656 C 2.808594 -11.800781 16.632812 -13.78125 16.632812 -7.863281 C 16.632812 -5.839844 14.976562 -4.222656 11.921875 -4.222656 C 8.890625 -4.222656 6.367188 -5.800781 6.003906 -9.355469 L 0.910156 -8.0625 C 1.820312 -2.445312 6.789062 0.324219 11.84375 0.324219 Z M 11.84375 0.324219 "/></g></g></g><g fill="#101e42" fill-opacity="1"><g transform="translate(159.98806, 166.325795)"><g><path d="M 9.679688 0.402344 C 12.085938 0.402344 14.1875 -0.464844 15.640625 -2.363281 L 15.640625 0 L 20.652344 0 L 20.652344 -20.1875 L 15.640625 -20.1875 L 15.640625 -11.09375 C 15.640625 -5.253906 13.277344 -4.0625 10.972656 -4.0625 C 7.984375 -4.0625 7.316406 -6.082031 7.316406 -9.398438 L 7.316406 -20.1875 L 2.324219 -20.1875 L 2.324219 -9.558594 C 2.324219 -3.476562 4.585938 0.402344 9.679688 0.402344 Z M 9.679688 0.402344 "/></g></g></g><g fill="#101e42" fill-opacity="1"><g transform="translate(184.689606, 166.325795)"><g><path d="M 2.808594 -24.007812 L 7.941406 -24.007812 L 7.941406 -28.554688 L 2.808594 -28.554688 Z M 2.929688 0 L 7.820312 0 L 7.820312 -20.1875 L 2.929688 -20.1875 Z M 2.929688 0 "/></g></g></g><g fill="#101e42" fill-opacity="1"><g transform="translate(196.558352, 166.325795)"><g><path d="M 10.105469 0.402344 C 11.5 0.402344 12.996094 0.0820312 13.742188 -0.203125 L 13.742188 -4.667969 C 13.074219 -4.34375 11.964844 -3.941406 10.933594 -3.941406 C 9.640625 -3.941406 8.648438 -4.507812 8.648438 -6.445312 L 8.648438 -16.066406 L 13.742188 -16.066406 L 13.742188 -20.1875 L 8.648438 -20.1875 L 8.648438 -28.71875 L 3.839844 -25.199219 L 3.839844 -20.1875 L 0.503906 -20.1875 L 0.503906 -16.066406 L 3.757812 -16.066406 L 3.757812 -5.578125 C 3.757812 -1.898438 6.125 0.402344 10.105469 0.402344 Z M 10.105469 0.402344 "/></g></g></g><g fill="#101e42" fill-opacity="1"><g transform="translate(212.913523, 166.325795)"><g><path d="M 11.335938 0.402344 C 14.734375 0.402344 17.421875 -0.789062 19.625 -3.234375 L 16.226562 -6.203125 C 14.8125 -4.628906 13.195312 -4.0625 11.378906 -4.0625 C 8.203125 -4.0625 6.75 -5.839844 6.324219 -8.488281 L 20.1875 -8.488281 C 20.289062 -8.769531 20.371094 -9.597656 20.371094 -10.429688 C 20.371094 -14.933594 18.085938 -20.613281 11.015625 -20.613281 C 4.183594 -20.613281 1.113281 -15.277344 1.113281 -10.023438 C 1.113281 -4.585938 4.386719 0.402344 11.335938 0.402344 Z M 6.324219 -12.042969 C 6.789062 -14.570312 8.0625 -16.46875 10.972656 -16.46875 C 13.539062 -16.46875 15.199219 -14.933594 15.519531 -12.042969 Z M 6.324219 -12.042969 "/></g></g></g><g fill="#101e42" fill-opacity="1"><g transform="translate(135.892788, 209.438619)"><g><path d="M 26.816406 -1.578125 L 22.574219 -6.34375 C 23.828125 -8.46875 24.574219 -10.953125 24.714844 -13.582031 L 19.90625 -14.066406 C 19.90625 -12.710938 19.664062 -11.359375 19.21875 -10.105469 L 15.175781 -14.632812 C 17.964844 -16.511719 20.332031 -18.773438 20.332031 -22.230469 C 20.332031 -25.988281 16.894531 -28.898438 12.753906 -28.898438 C 8.851562 -28.898438 4.851562 -26.371094 4.851562 -22.191406 C 4.851562 -19.117188 6.972656 -16.714844 8.226562 -15.460938 C 4.851562 -13.460938 1.617188 -10.992188 1.617188 -6.667969 C 1.617188 -2.0625 5.757812 0.464844 10.972656 0.464844 C 14.308594 0.464844 17.257812 -0.746094 19.582031 -2.769531 L 23.339844 1.535156 Z M 9.597656 -22.109375 C 9.597656 -24.007812 11.09375 -25.039062 12.792969 -25.039062 C 14.734375 -25.039062 15.761719 -23.664062 15.761719 -22.148438 C 15.761719 -20.289062 14.144531 -18.9375 12.003906 -17.640625 C 11.113281 -18.671875 9.597656 -20.613281 9.597656 -22.109375 Z M 10.851562 -3.71875 C 8.203125 -3.71875 6.367188 -4.667969 6.367188 -6.589844 C 6.367188 -8.953125 8.609375 -10.589844 11.296875 -12.246094 L 16.691406 -6.082031 C 15.175781 -4.628906 13.195312 -3.71875 10.851562 -3.71875 Z M 10.851562 -3.71875 "/></g></g></g><g fill="#101e42" fill-opacity="1"><g transform="translate(164.9393, 209.438619)"><g/></g></g><g fill="#101e42" fill-opacity="1"><g transform="translate(175.99968, 209.438619)"><g><path d="M 15.480469 0.402344 C 21.160156 0.402344 25.707031 -2.484375 27.96875 -7.820312 L 23.21875 -9.761719 C 21.683594 -5.921875 19.160156 -4.464844 15.480469 -4.464844 C 9.355469 -4.464844 6.75 -8.8125 6.75 -14.488281 C 6.75 -19.785156 9.355469 -24.128906 15.398438 -24.128906 C 19.117188 -24.128906 22.070312 -22.675781 23.140625 -18.914062 L 27.929688 -20.816406 C 25.625 -26.152344 21.097656 -29.019531 15.441406 -29.019531 C 6.042969 -29.019531 1.65625 -22.109375 1.65625 -14.289062 C 1.65625 -6.445312 6.082031 0.402344 15.480469 0.402344 Z M 15.480469 0.402344 "/></g></g></g><g fill="#101e42" fill-opacity="1"><g transform="translate(206.056646, 209.438619)"><g><path d="M 11.378906 0.402344 C 17.621094 0.402344 21.726562 -4.425781 21.726562 -10.144531 C 21.726562 -15.84375 17.621094 -20.613281 11.378906 -20.613281 C 5.132812 -20.613281 1.03125 -15.84375 1.03125 -10.144531 C 1.03125 -4.425781 5.132812 0.402344 11.378906 0.402344 Z M 11.378906 -3.839844 C 7.660156 -3.839844 6.164062 -6.832031 6.164062 -10.144531 C 6.164062 -13.460938 7.660156 -16.347656 11.378906 -16.347656 C 15.117188 -16.347656 16.589844 -13.460938 16.589844 -10.144531 C 16.589844 -6.832031 15.117188 -3.839844 11.378906 -3.839844 Z M 11.378906 -3.839844 "/></g></g></g><g fill="#101e42" fill-opacity="1"><g transform="translate(229.970034, 209.438619)"><g><path d="M 2.929688 0 L 7.902344 0 L 7.902344 -11.09375 C 7.902344 -13.78125 9.476562 -16.027344 12.164062 -16.027344 C 14.691406 -16.027344 15.359375 -14.023438 15.359375 -11.578125 L 15.359375 0 L 20.371094 0 L 20.371094 -11.09375 C 20.371094 -13.78125 21.925781 -16.027344 24.59375 -16.027344 C 27.140625 -16.027344 27.847656 -13.984375 27.847656 -11.5 L 27.847656 0 L 32.859375 0 L 32.859375 -12.125 C 32.859375 -16.390625 30.578125 -20.613281 25.402344 -20.613281 C 22.796875 -20.613281 20.289062 -19.542969 18.714844 -17.054688 C 17.378906 -19.460938 15.480469 -20.613281 13.035156 -20.613281 C 11.136719 -20.613281 9.234375 -19.90625 7.902344 -18.085938 L 7.902344 -20.1875 L 2.929688 -20.1875 Z M 2.929688 0 "/></g></g></g><g fill="#101e42" fill-opacity="1"><g transform="translate(266.31204, 209.438619)"><g><path d="M 2.972656 8.851562 L 7.984375 8.851562 L 7.984375 -2.019531 C 9.398438 -0.28125 11.621094 0.402344 13.742188 0.402344 C 19.320312 0.402344 22.390625 -4.507812 22.390625 -10.105469 C 22.390625 -15.722656 19.320312 -20.613281 13.660156 -20.613281 C 11.5 -20.613281 9.398438 -19.90625 7.984375 -18.167969 L 7.984375 -20.1875 L 2.972656 -20.1875 Z M 12.449219 -4.144531 C 9.074219 -4.144531 7.539062 -6.710938 7.539062 -10.105469 C 7.539062 -13.5 9.074219 -16.1875 12.449219 -16.1875 C 15.84375 -16.1875 17.378906 -13.5 17.378906 -10.105469 C 17.378906 -6.710938 15.84375 -4.144531 12.449219 -4.144531 Z M 12.449219 -4.144531 "/></g></g></g><g fill="#101e42" fill-opacity="1"><g transform="translate(291.094428, 209.438619)"><g><path d="M 8.449219 0.402344 C 10.851562 0.402344 12.996094 -0.363281 14.734375 -2.890625 L 15.054688 0 L 19.117188 0 L 19.117188 -12.246094 C 19.117188 -17.179688 15.882812 -20.613281 10.386719 -20.613281 C 6.40625 -20.613281 3.839844 -18.835938 1.898438 -16.1875 L 5.679688 -13.460938 C 6.546875 -14.933594 8.105469 -16.308594 10.429688 -16.308594 C 13.035156 -16.308594 14.410156 -14.609375 14.410156 -12.042969 L 9.15625 -12.042969 C 4.628906 -12.042969 1.113281 -10.589844 1.113281 -6.203125 C 1.113281 -1.980469 4.304688 0.402344 8.449219 0.402344 Z M 9.15625 -3.757812 C 7.234375 -3.757812 6.164062 -4.707031 6.164062 -6.042969 C 6.164062 -7.316406 7.195312 -8.488281 9.4375 -8.488281 L 14.410156 -8.488281 C 14.328125 -5.960938 11.964844 -3.757812 9.15625 -3.757812 Z M 9.15625 -3.757812 "/></g></g></g><g fill="#101e42" fill-opacity="1"><g transform="translate(313.65381, 209.438619)"><g><path d="M 2.929688 0 L 7.820312 0 L 7.820312 -11.054688 C 7.820312 -14.570312 9.597656 -16.066406 12.367188 -16.066406 C 14.894531 -16.066406 16.226562 -14.144531 16.226562 -11.5 L 16.226562 0 L 21.097656 0 L 21.097656 -12.125 C 21.097656 -16.347656 19.078125 -20.613281 13.78125 -20.613281 C 11.800781 -20.613281 9.4375 -19.824219 7.820312 -17.84375 L 7.820312 -20.1875 L 2.929688 -20.1875 Z M 2.929688 0 "/></g></g></g><g fill="#101e42" fill-opacity="1"><g transform="translate(338.234106, 209.438619)"><g><path d="M 4.0625 8.691406 L 9.4375 8.691406 L 20.976562 -20.1875 L 15.5625 -20.1875 L 10.386719 -6.164062 L 5.292969 -20.1875 L -0.121094 -20.1875 L 7.78125 -0.546875 Z M 4.0625 8.691406 "/></g></g></g><g fill="#b8c8cf" fill-opacity="1"><g transform="translate(135.892788, 240.303654)"><g><path d="M 1.335938 0 L 5.003906 0 C 6.644531 0 8.199219 -0.917969 8.199219 -2.792969 C 8.199219 -3.902344 7.5 -4.882812 6.554688 -5.269531 C 7.171875 -5.609375 7.714844 -6.324219 7.714844 -7.289062 C 7.714844 -9.207031 6.078125 -9.886719 4.546875 -9.886719 L 1.335938 -9.886719 Z M 2.902344 -5.785156 L 2.902344 -8.472656 L 4.574219 -8.472656 C 5.492188 -8.472656 6.234375 -8.109375 6.234375 -7.175781 C 6.234375 -6.113281 5.484375 -5.785156 4.667969 -5.785156 Z M 2.902344 -1.484375 L 2.902344 -4.421875 L 4.988281 -4.421875 C 5.953125 -4.421875 6.660156 -3.875 6.660156 -2.953125 C 6.660156 -1.894531 5.996094 -1.484375 5.03125 -1.484375 Z M 2.902344 -1.484375 "/></g></g></g><g fill="#b8c8cf" fill-opacity="1"><g transform="translate(148.169821, 240.303654)"><g><path d="M 3.363281 0.148438 C 4.28125 0.148438 5.035156 -0.285156 5.472656 -0.929688 L 5.472656 0 L 6.988281 0 L 6.988281 -6.988281 L 5.472656 -6.988281 L 5.472656 -3.617188 C 5.472656 -1.796875 4.609375 -1.1875 3.707031 -1.1875 C 2.625 -1.1875 2.378906 -2.027344 2.378906 -3.128906 L 2.378906 -6.988281 L 0.859375 -6.988281 L 0.859375 -3.191406 C 0.859375 -1.203125 1.617188 0.148438 3.363281 0.148438 Z M 3.363281 0.148438 "/></g></g></g><g fill="#b8c8cf" fill-opacity="1"><g transform="translate(159.656784, 240.303654)"><g><path d="M 3.121094 0.140625 C 4.40625 0.140625 5.742188 -0.566406 5.742188 -2.132812 C 5.742188 -4.695312 2.121094 -3.996094 2.121094 -5.234375 C 2.121094 -5.632812 2.503906 -5.945312 3.121094 -5.945312 C 3.875 -5.945312 4.300781 -5.511719 4.566406 -5.023438 L 5.714844 -5.652344 C 5.210938 -6.5625 4.335938 -7.136719 3.175781 -7.136719 C 1.875 -7.136719 0.699219 -6.441406 0.699219 -5.03125 C 0.699219 -2.59375 4.273438 -3.429688 4.273438 -2.027344 C 4.273438 -1.539062 3.855469 -1.097656 3.0625 -1.097656 C 2.132812 -1.097656 1.699219 -1.726562 1.496094 -2.300781 L 0.285156 -1.75 C 0.621094 -0.71875 1.691406 0.140625 3.121094 0.140625 Z M 3.121094 0.140625 "/></g></g></g><g fill="#b8c8cf" fill-opacity="1"><g transform="translate(169.367837, 240.303654)"><g><path d="M 1.015625 -8.382812 L 2.609375 -8.382812 L 2.609375 -9.886719 L 1.015625 -9.886719 Z M 1.070312 0 L 2.558594 0 L 2.558594 -6.988281 L 1.070312 -6.988281 Z M 1.070312 0 "/></g></g></g><g fill="#b8c8cf" fill-opacity="1"><g transform="translate(176.436004, 240.303654)"><g><path d="M 1.070312 0 L 2.554688 0 L 2.554688 -3.765625 C 2.554688 -5.140625 3.253906 -5.765625 4.253906 -5.765625 C 5.238281 -5.765625 5.667969 -4.96875 5.667969 -4.035156 L 5.667969 0 L 7.148438 0 L 7.148438 -4.210938 C 7.148438 -5.703125 6.457031 -7.128906 4.679688 -7.128906 C 3.890625 -7.128906 3.085938 -6.777344 2.554688 -6.050781 L 2.554688 -6.988281 L 1.070312 -6.988281 Z M 1.070312 0 "/></g></g></g><g fill="#b8c8cf" fill-opacity="1"><g transform="translate(187.901993, 240.303654)"><g><path d="M 3.882812 0.125 C 5.035156 0.125 5.925781 -0.257812 6.6875 -1.078125 L 5.652344 -1.964844 C 5.148438 -1.414062 4.574219 -1.222656 3.890625 -1.222656 C 2.707031 -1.222656 2.148438 -1.980469 2.050781 -3 L 6.871094 -3 C 6.898438 -3.105469 6.917969 -3.378906 6.917969 -3.628906 C 6.917969 -5.203125 6.164062 -7.121094 3.769531 -7.121094 C 1.511719 -7.121094 0.46875 -5.304688 0.46875 -3.464844 C 0.46875 -1.582031 1.558594 0.125 3.882812 0.125 Z M 2.050781 -4.113281 C 2.175781 -5.085938 2.664062 -5.871094 3.757812 -5.871094 C 4.820312 -5.871094 5.367188 -5.15625 5.457031 -4.113281 Z M 2.050781 -4.113281 "/></g></g></g><g fill="#b8c8cf" fill-opacity="1"><g transform="translate(198.738719, 240.303654)"><g><path d="M 3.121094 0.140625 C 4.40625 0.140625 5.742188 -0.566406 5.742188 -2.132812 C 5.742188 -4.695312 2.121094 -3.996094 2.121094 -5.234375 C 2.121094 -5.632812 2.503906 -5.945312 3.121094 -5.945312 C 3.875 -5.945312 4.300781 -5.511719 4.566406 -5.023438 L 5.714844 -5.652344 C 5.210938 -6.5625 4.335938 -7.136719 3.175781 -7.136719 C 1.875 -7.136719 0.699219 -6.441406 0.699219 -5.03125 C 0.699219 -2.59375 4.273438 -3.429688 4.273438 -2.027344 C 4.273438 -1.539062 3.855469 -1.097656 3.0625 -1.097656 C 2.132812 -1.097656 1.699219 -1.726562 1.496094 -2.300781 L 0.285156 -1.75 C 0.621094 -0.71875 1.691406 0.140625 3.121094 0.140625 Z M 3.121094 0.140625 "/></g></g></g><g fill="#b8c8cf" fill-opacity="1"><g transform="translate(208.449774, 240.303654)"><g><path d="M 3.121094 0.140625 C 4.40625 0.140625 5.742188 -0.566406 5.742188 -2.132812 C 5.742188 -4.695312 2.121094 -3.996094 2.121094 -5.234375 C 2.121094 -5.632812 2.503906 -5.945312 3.121094 -5.945312 C 3.875 -5.945312 4.300781 -5.511719 4.566406 -5.023438 L 5.714844 -5.652344 C 5.210938 -6.5625 4.335938 -7.136719 3.175781 -7.136719 C 1.875 -7.136719 0.699219 -6.441406 0.699219 -5.03125 C 0.699219 -2.59375 4.273438 -3.429688 4.273438 -2.027344 C 4.273438 -1.539062 3.855469 -1.097656 3.0625 -1.097656 C 2.132812 -1.097656 1.699219 -1.726562 1.496094 -2.300781 L 0.285156 -1.75 C 0.621094 -0.71875 1.691406 0.140625 3.121094 0.140625 Z M 3.121094 0.140625 "/></g></g></g><g fill="#b8c8cf" fill-opacity="1"><g transform="translate(218.160829, 240.303654)"><g/></g></g><g fill="#b8c8cf" fill-opacity="1"><g transform="translate(225.145095, 240.303654)"><g><path d="M 1.335938 0 L 2.859375 0 L 2.859375 -7.871094 L 5.472656 -0.859375 L 7.03125 -0.859375 L 9.648438 -7.871094 L 9.648438 0 L 11.160156 0 L 11.160156 -9.886719 L 8.949219 -9.886719 L 6.242188 -2.566406 L 3.546875 -9.886719 L 1.335938 -9.886719 Z M 1.335938 0 "/></g></g></g><g fill="#b8c8cf" fill-opacity="1"><g transform="translate(241.078822, 240.303654)"><g><path d="M 2.890625 0.140625 C 3.769531 0.140625 4.574219 -0.183594 5.148438 -1.113281 L 5.238281 0 L 6.476562 0 L 6.476562 -4.253906 C 6.476562 -5.960938 5.414062 -7.136719 3.546875 -7.136719 C 2.238281 -7.136719 1.363281 -6.554688 0.699219 -5.652344 L 1.839844 -4.820312 C 2.148438 -5.324219 2.714844 -5.828125 3.574219 -5.828125 C 4.589844 -5.828125 5.058594 -5.136719 5.058594 -4.113281 L 3.308594 -4.113281 C 1.609375 -4.113281 0.433594 -3.566406 0.433594 -2.085938 C 0.433594 -0.671875 1.488281 0.140625 2.890625 0.140625 Z M 3.09375 -1.125 C 2.414062 -1.125 1.972656 -1.460938 1.972656 -2.035156 C 1.972656 -2.628906 2.441406 -3.023438 3.40625 -3.023438 L 5.058594 -3.023438 C 5.035156 -2.0625 4.210938 -1.125 3.09375 -1.125 Z M 3.09375 -1.125 "/></g></g></g><g fill="#b8c8cf" fill-opacity="1"><g transform="translate(251.859618, 240.303654)"><g><path d="M 1.070312 0 L 2.519531 0 L 2.519531 -3.121094 C 2.519531 -4.867188 3.316406 -5.679688 4.238281 -5.679688 C 4.535156 -5.679688 4.800781 -5.597656 5.03125 -5.429688 L 5.703125 -6.675781 C 5.394531 -6.976562 4.9375 -7.136719 4.46875 -7.136719 C 3.652344 -7.136719 2.855469 -6.644531 2.53125 -5.792969 L 2.53125 -6.988281 L 1.070312 -6.988281 Z M 1.070312 0 "/></g></g></g><g fill="#b8c8cf" fill-opacity="1"><g transform="translate(260.95539, 240.303654)"><g><path d="M 1.085938 0 L 2.582031 0 L 2.582031 -2.050781 L 3.792969 -3.386719 L 5.871094 0 L 7.644531 0 L 4.792969 -4.324219 L 7.304688 -6.988281 L 5.367188 -6.988281 L 2.582031 -3.8125 L 2.582031 -9.886719 L 1.085938 -9.886719 Z M 1.085938 0 "/></g></g></g><g fill="#b8c8cf" fill-opacity="1"><g transform="translate(272.057807, 240.303654)"><g><path d="M 3.882812 0.125 C 5.035156 0.125 5.925781 -0.257812 6.6875 -1.078125 L 5.652344 -1.964844 C 5.148438 -1.414062 4.574219 -1.222656 3.890625 -1.222656 C 2.707031 -1.222656 2.148438 -1.980469 2.050781 -3 L 6.871094 -3 C 6.898438 -3.105469 6.917969 -3.378906 6.917969 -3.628906 C 6.917969 -5.203125 6.164062 -7.121094 3.769531 -7.121094 C 1.511719 -7.121094 0.46875 -5.304688 0.46875 -3.464844 C 0.46875 -1.582031 1.558594 0.125 3.882812 0.125 Z M 2.050781 -4.113281 C 2.175781 -5.085938 2.664062 -5.871094 3.757812 -5.871094 C 4.820312 -5.871094 5.367188 -5.15625 5.457031 -4.113281 Z M 2.050781 -4.113281 "/></g></g></g><g fill="#b8c8cf" fill-opacity="1"><g transform="translate(282.894536, 240.303654)"><g><path d="M 3.378906 0.140625 C 3.847656 0.140625 4.308594 0.0429688 4.539062 -0.0507812 L 4.539062 -1.390625 C 4.308594 -1.28125 3.964844 -1.160156 3.652344 -1.160156 C 3.183594 -1.160156 2.828125 -1.414062 2.828125 -2.113281 L 2.828125 -5.738281 L 4.597656 -5.738281 L 4.597656 -6.988281 L 2.828125 -6.988281 L 2.828125 -9.816406 L 1.363281 -8.675781 L 1.363281 -6.988281 L 0.21875 -6.988281 L 0.21875 -5.738281 L 1.34375 -5.738281 L 1.34375 -1.910156 C 1.34375 -0.65625 2.042969 0.140625 3.378906 0.140625 Z M 3.378906 0.140625 "/></g></g></g><g fill="#b8c8cf" fill-opacity="1"><g transform="translate(291.430975, 240.303654)"><g><path d="M 1.015625 -8.382812 L 2.609375 -8.382812 L 2.609375 -9.886719 L 1.015625 -9.886719 Z M 1.070312 0 L 2.558594 0 L 2.558594 -6.988281 L 1.070312 -6.988281 Z M 1.070312 0 "/></g></g></g><g fill="#b8c8cf" fill-opacity="1"><g transform="translate(298.499142, 240.303654)"><g><path d="M 1.070312 0 L 2.554688 0 L 2.554688 -3.765625 C 2.554688 -5.140625 3.253906 -5.765625 4.253906 -5.765625 C 5.238281 -5.765625 5.667969 -4.96875 5.667969 -4.035156 L 5.667969 0 L 7.148438 0 L 7.148438 -4.210938 C 7.148438 -5.703125 6.457031 -7.128906 4.679688 -7.128906 C 3.890625 -7.128906 3.085938 -6.777344 2.554688 -6.050781 L 2.554688 -6.988281 L 1.070312 -6.988281 Z M 1.070312 0 "/></g></g></g><g fill="#b8c8cf" fill-opacity="1"><g transform="translate(309.96513, 240.303654)"><g><path d="M 4.050781 -1.027344 C 2.882812 -1.183594 2.015625 -1.257812 2.015625 -1.875 C 2.015625 -2.058594 2.097656 -2.191406 2.253906 -2.292969 C 2.644531 -2.121094 3.09375 -2.023438 3.574219 -2.023438 C 5.085938 -2.023438 6.332031 -2.980469 6.332031 -4.527344 C 6.332031 -4.96875 6.226562 -5.367188 6.042969 -5.714844 L 7.09375 -6.554688 L 6.304688 -7.542969 L 5.246094 -6.617188 C 4.769531 -6.941406 4.183594 -7.121094 3.53125 -7.121094 C 2.015625 -7.121094 0.75 -6.101562 0.75 -4.589844 C 0.75 -3.964844 0.964844 -3.414062 1.328125 -2.988281 C 0.921875 -2.628906 0.71875 -2.195312 0.71875 -1.628906 C 0.71875 -0.945312 1.027344 -0.511719 1.476562 -0.230469 L 0.65625 0.53125 C 0.644531 0.609375 0.628906 0.6875 0.628906 0.820312 C 0.628906 2.21875 1.832031 3.273438 3.820312 3.273438 C 5.472656 3.273438 6.820312 2.539062 6.820312 1.007812 C 6.820312 -0.585938 5.402344 -0.851562 4.050781 -1.027344 Z M 3.566406 -5.953125 C 4.378906 -5.953125 4.839844 -5.367188 4.839844 -4.589844 C 4.839844 -3.796875 4.386719 -3.246094 3.566406 -3.246094 C 2.757812 -3.246094 2.292969 -3.796875 2.292969 -4.589844 C 2.292969 -5.359375 2.761719 -5.953125 3.566406 -5.953125 Z M 3.855469 2.0625 C 2.742188 2.0625 1.988281 1.59375 1.917969 0.851562 L 2.414062 0.132812 C 2.785156 0.222656 3.183594 0.273438 3.539062 0.320312 C 4.671875 0.476562 5.414062 0.53125 5.414062 1.167969 C 5.414062 1.75 4.75 2.0625 3.855469 2.0625 Z M 3.855469 2.0625 "/></g></g></g></svg>