<svg xmlns="http://www.w3.org/2000/svg" xmlns:xlink="http://www.w3.org/1999/xlink" width="500" zoomAndPan="magnify" viewBox="0 0 375 374.999991" height="500" preserveAspectRatio="xMidYMid meet" version="1.0"><defs><g/><clipPath id="0f9706157a"><path d="M 84 153 L 116.996094 153 L 116.996094 240 L 84 240 Z M 84 153 " clip-rule="nonzero"/></clipPath><clipPath id="67b1ae238e"><path d="M 47 137.972656 L 81 137.972656 L 81 208 L 47 208 Z M 47 137.972656 " clip-rule="nonzero"/></clipPath><clipPath id="e78cee4c42"><path d="M 47 174 L 81 174 L 81 243.722656 L 47 243.722656 Z M 47 174 " clip-rule="nonzero"/></clipPath><clipPath id="4d611be91b"><path d="M 11.246094 142 L 43 142 L 43 229 L 11.246094 229 Z M 11.246094 142 " clip-rule="nonzero"/></clipPath></defs><path fill="#b8c8cf" d="M 84.546875 142.058594 L 84.546875 170.03125 L 101.316406 153.261719 C 96.492188 148.515625 90.847656 144.703125 84.546875 142.058594 Z M 84.546875 142.058594 " fill-opacity="1" fill-rule="nonzero"/><g clip-path="url(#0f9706157a)"><path fill="#ffffff" d="M 101.277344 153.261719 L 84.507812 170.03125 L 84.507812 239.675781 C 103.570312 231.699219 116.957031 212.867188 116.957031 190.886719 C 116.996094 176.140625 111.003906 162.835938 101.277344 153.261719 Z M 101.277344 153.261719 " fill-opacity="1" fill-rule="nonzero"/></g><g clip-path="url(#67b1ae238e)"><path fill="#b8c8cf" d="M 80.265625 140.5 C 75.167969 138.867188 69.761719 137.972656 64.121094 137.972656 C 58.167969 137.972656 52.449219 138.984375 47.117188 140.773438 L 47.117188 207.421875 L 80.265625 174.273438 Z M 80.265625 140.5 " fill-opacity="1" fill-rule="nonzero"/></g><g clip-path="url(#e78cee4c42)"><path fill="#ffffff" d="M 47.117188 207.421875 L 47.117188 240.921875 C 52.449219 242.75 58.167969 243.722656 64.121094 243.722656 C 69.761719 243.722656 75.167969 242.828125 80.265625 241.195312 L 80.265625 174.273438 Z M 47.117188 207.421875 " fill-opacity="1" fill-rule="nonzero"/></g><g clip-path="url(#4d611be91b)"><path fill="#b8c8cf" d="M 42.875 142.445312 C 24.238281 150.617188 11.246094 169.214844 11.246094 190.847656 C 11.246094 205.359375 17.082031 218.472656 26.535156 228.003906 L 42.875 211.664062 Z M 42.875 142.445312 " fill-opacity="1" fill-rule="nonzero"/></g><path fill="#ffffff" d="M 26.535156 228.042969 C 31.203125 232.75 36.730469 236.601562 42.875 239.289062 L 42.875 211.703125 Z M 26.535156 228.042969 " fill-opacity="1" fill-rule="nonzero"/><g fill="#ffffff" fill-opacity="1"><g transform="translate(134.834806, 166.364298)"><g><path d="M 12.085938 0.328125 C 17.652344 0.328125 22.210938 -2.992188 22.210938 -8.496094 C 22.210938 -18.167969 8.105469 -16.3125 8.105469 -21.800781 C 8.105469 -23.65625 9.714844 -24.914062 11.777344 -24.914062 C 13.734375 -24.914062 15.46875 -23.777344 16.476562 -21.800781 L 20.828125 -24.460938 C 18.828125 -28.007812 15.550781 -29.574219 11.960938 -29.574219 C 7.054688 -29.574219 2.867188 -26.6875 2.867188 -21.53125 C 2.867188 -12.042969 16.972656 -14.066406 16.972656 -8.023438 C 16.972656 -5.960938 15.28125 -4.308594 12.167969 -4.308594 C 9.074219 -4.308594 6.496094 -5.917969 6.125 -9.546875 L 0.929688 -8.230469 C 1.855469 -2.496094 6.929688 0.328125 12.085938 0.328125 Z M 12.085938 0.328125 "/></g></g></g><g fill="#ffffff" fill-opacity="1"><g transform="translate(159.42405, 166.364298)"><g><path d="M 9.878906 0.414062 C 12.332031 0.414062 14.476562 -0.472656 15.960938 -2.414062 L 15.960938 0 L 21.078125 0 L 21.078125 -20.601562 L 15.960938 -20.601562 L 15.960938 -11.324219 C 15.960938 -5.363281 13.550781 -4.144531 11.199219 -4.144531 C 8.144531 -4.144531 7.464844 -6.207031 7.464844 -9.589844 L 7.464844 -20.601562 L 2.371094 -20.601562 L 2.371094 -9.753906 C 2.371094 -3.546875 4.679688 0.414062 9.878906 0.414062 Z M 9.878906 0.414062 "/></g></g></g><g fill="#ffffff" fill-opacity="1"><g transform="translate(184.631997, 166.364298)"><g><path d="M 2.867188 -24.5 L 8.105469 -24.5 L 8.105469 -29.140625 L 2.867188 -29.140625 Z M 2.992188 0 L 7.980469 0 L 7.980469 -20.601562 L 2.992188 -20.601562 Z M 2.992188 0 "/></g></g></g><g fill="#ffffff" fill-opacity="1"><g transform="translate(196.744061, 166.364298)"><g><path d="M 10.3125 0.414062 C 11.734375 0.414062 13.261719 0.0820312 14.023438 -0.207031 L 14.023438 -4.765625 C 13.34375 -4.433594 12.210938 -4.023438 11.15625 -4.023438 C 9.835938 -4.023438 8.828125 -4.597656 8.828125 -6.578125 L 8.828125 -16.394531 L 14.023438 -16.394531 L 14.023438 -20.601562 L 8.828125 -20.601562 L 8.828125 -29.304688 L 3.917969 -25.71875 L 3.917969 -20.601562 L 0.515625 -20.601562 L 0.515625 -16.394531 L 3.835938 -16.394531 L 3.835938 -5.691406 C 3.835938 -1.9375 6.25 0.414062 10.3125 0.414062 Z M 10.3125 0.414062 "/></g></g></g><g fill="#ffffff" fill-opacity="1"><g transform="translate(213.434526, 166.364298)"><g><path d="M 11.570312 0.414062 C 15.035156 0.414062 17.777344 -0.804688 20.023438 -3.300781 L 16.5625 -6.332031 C 15.117188 -4.722656 13.46875 -4.144531 11.609375 -4.144531 C 8.375 -4.144531 6.886719 -5.960938 6.457031 -8.660156 L 20.601562 -8.660156 C 20.707031 -8.949219 20.789062 -9.796875 20.789062 -10.640625 C 20.789062 -15.242188 18.457031 -21.035156 11.238281 -21.035156 C 4.269531 -21.035156 1.132812 -15.589844 1.132812 -10.230469 C 1.132812 -4.679688 4.476562 0.414062 11.570312 0.414062 Z M 6.457031 -12.292969 C 6.929688 -14.871094 8.230469 -16.808594 11.199219 -16.808594 C 13.816406 -16.808594 15.507812 -15.242188 15.839844 -12.292969 Z M 6.457031 -12.292969 "/></g></g></g><g fill="#ffffff" fill-opacity="1"><g transform="translate(134.834806, 210.360968)"><g><path d="M 27.367188 -1.609375 L 23.035156 -6.476562 C 24.316406 -8.640625 25.078125 -11.179688 25.222656 -13.859375 L 20.3125 -14.355469 C 20.3125 -12.972656 20.066406 -11.589844 19.613281 -10.3125 L 15.488281 -14.929688 C 18.335938 -16.847656 20.746094 -19.160156 20.746094 -22.6875 C 20.746094 -26.523438 17.242188 -29.492188 13.011719 -29.492188 C 9.03125 -29.492188 4.949219 -26.914062 4.949219 -22.644531 C 4.949219 -19.511719 7.113281 -17.054688 8.394531 -15.777344 C 4.949219 -13.734375 1.648438 -11.21875 1.648438 -6.804688 C 1.648438 -2.105469 5.878906 0.472656 11.199219 0.472656 C 14.601562 0.472656 17.613281 -0.761719 19.984375 -2.824219 L 23.820312 1.566406 Z M 9.796875 -22.5625 C 9.796875 -24.5 11.324219 -25.550781 13.054688 -25.550781 C 15.035156 -25.550781 16.085938 -24.148438 16.085938 -22.601562 C 16.085938 -20.707031 14.4375 -19.324219 12.25 -18.003906 C 11.34375 -19.054688 9.796875 -21.035156 9.796875 -22.5625 Z M 11.074219 -3.792969 C 8.375 -3.792969 6.496094 -4.765625 6.496094 -6.722656 C 6.496094 -9.136719 8.785156 -10.808594 11.527344 -12.496094 L 17.035156 -6.207031 C 15.488281 -4.722656 13.46875 -3.792969 11.074219 -3.792969 Z M 11.074219 -3.792969 "/></g></g></g><g fill="#ffffff" fill-opacity="1"><g transform="translate(164.476794, 210.360968)"><g/></g></g><g fill="#ffffff" fill-opacity="1"><g transform="translate(175.763921, 210.360968)"><g><path d="M 15.796875 0.414062 C 21.59375 0.414062 26.234375 -2.535156 28.542969 -7.980469 L 23.695312 -9.960938 C 22.128906 -6.042969 19.550781 -4.558594 15.796875 -4.558594 C 9.546875 -4.558594 6.886719 -8.992188 6.886719 -14.785156 C 6.886719 -20.191406 9.546875 -24.625 15.714844 -24.625 C 19.511719 -24.625 22.519531 -23.140625 23.613281 -19.304688 L 28.5 -21.242188 C 26.152344 -26.6875 21.53125 -29.617188 15.757812 -29.617188 C 6.167969 -29.617188 1.691406 -22.5625 1.691406 -14.582031 C 1.691406 -6.578125 6.207031 0.414062 15.796875 0.414062 Z M 15.796875 0.414062 "/></g></g></g><g fill="#ffffff" fill-opacity="1"><g transform="translate(206.437078, 210.360968)"><g><path d="M 11.609375 0.414062 C 17.984375 0.414062 22.171875 -4.515625 22.171875 -10.351562 C 22.171875 -16.167969 17.984375 -21.035156 11.609375 -21.035156 C 5.238281 -21.035156 1.050781 -16.167969 1.050781 -10.351562 C 1.050781 -4.515625 5.238281 0.414062 11.609375 0.414062 Z M 11.609375 -3.917969 C 7.816406 -3.917969 6.289062 -6.972656 6.289062 -10.351562 C 6.289062 -13.734375 7.816406 -16.683594 11.609375 -16.683594 C 15.425781 -16.683594 16.933594 -13.734375 16.933594 -10.351562 C 16.933594 -6.972656 15.425781 -3.917969 11.609375 -3.917969 Z M 11.609375 -3.917969 "/></g></g></g><g fill="#ffffff" fill-opacity="1"><g transform="translate(230.840709, 210.360968)"><g><path d="M 2.992188 0 L 8.0625 0 L 8.0625 -11.324219 C 8.0625 -14.066406 9.671875 -16.355469 12.414062 -16.355469 C 14.992188 -16.355469 15.671875 -14.3125 15.671875 -11.816406 L 15.671875 0 L 20.789062 0 L 20.789062 -11.324219 C 20.789062 -14.066406 22.375 -16.355469 25.097656 -16.355469 C 27.699219 -16.355469 28.417969 -14.269531 28.417969 -11.734375 L 28.417969 0 L 33.535156 0 L 33.535156 -12.375 C 33.535156 -16.726562 31.203125 -21.035156 25.921875 -21.035156 C 23.261719 -21.035156 20.707031 -19.941406 19.097656 -17.40625 C 17.734375 -19.859375 15.796875 -21.035156 13.300781 -21.035156 C 11.363281 -21.035156 9.425781 -20.3125 8.0625 -18.457031 L 8.0625 -20.601562 L 2.992188 -20.601562 Z M 2.992188 0 "/></g></g></g><g fill="#ffffff" fill-opacity="1"><g transform="translate(267.927755, 210.360968)"><g><path d="M 3.03125 9.03125 L 8.144531 9.03125 L 8.144531 -2.0625 C 9.589844 -0.289062 11.859375 0.414062 14.023438 0.414062 C 19.714844 0.414062 22.851562 -4.597656 22.851562 -10.3125 C 22.851562 -16.046875 19.714844 -21.035156 13.941406 -21.035156 C 11.734375 -21.035156 9.589844 -20.3125 8.144531 -18.539062 L 8.144531 -20.601562 L 3.03125 -20.601562 Z M 12.703125 -4.226562 C 9.261719 -4.226562 7.691406 -6.847656 7.691406 -10.3125 C 7.691406 -13.777344 9.261719 -16.519531 12.703125 -16.519531 C 16.167969 -16.519531 17.734375 -13.777344 17.734375 -10.3125 C 17.734375 -6.847656 16.167969 -4.226562 12.703125 -4.226562 Z M 12.703125 -4.226562 "/></g></g></g><g fill="#ffffff" fill-opacity="1"><g transform="translate(293.218201, 210.360968)"><g><path d="M 8.621094 0.414062 C 11.074219 0.414062 13.261719 -0.371094 15.035156 -2.949219 L 15.363281 0 L 19.511719 0 L 19.511719 -12.496094 C 19.511719 -17.53125 16.210938 -21.035156 10.601562 -21.035156 C 6.539062 -21.035156 3.917969 -19.222656 1.9375 -16.519531 L 5.796875 -13.734375 C 6.683594 -15.242188 8.269531 -16.644531 10.640625 -16.644531 C 13.300781 -16.644531 14.703125 -14.910156 14.703125 -12.292969 L 9.34375 -12.292969 C 4.722656 -12.292969 1.132812 -10.808594 1.132812 -6.332031 C 1.132812 -2.019531 4.394531 0.414062 8.621094 0.414062 Z M 9.34375 -3.835938 C 7.382812 -3.835938 6.289062 -4.804688 6.289062 -6.167969 C 6.289062 -7.464844 7.34375 -8.660156 9.632812 -8.660156 L 14.703125 -8.660156 C 14.621094 -6.082031 12.210938 -3.835938 9.34375 -3.835938 Z M 9.34375 -3.835938 "/></g></g></g><g fill="#ffffff" fill-opacity="1"><g transform="translate(316.240068, 210.360968)"><g><path d="M 2.992188 0 L 7.980469 0 L 7.980469 -11.28125 C 7.980469 -14.871094 9.796875 -16.394531 12.621094 -16.394531 C 15.199219 -16.394531 16.5625 -14.4375 16.5625 -11.734375 L 16.5625 0 L 21.53125 0 L 21.53125 -12.375 C 21.53125 -16.683594 19.46875 -21.035156 14.066406 -21.035156 C 12.042969 -21.035156 9.632812 -20.230469 7.980469 -18.210938 L 7.980469 -20.601562 L 2.992188 -20.601562 Z M 2.992188 0 "/></g></g></g><g fill="#ffffff" fill-opacity="1"><g transform="translate(341.32428, 210.360968)"><g><path d="M 4.144531 8.867188 L 9.632812 8.867188 L 21.40625 -20.601562 L 15.878906 -20.601562 L 10.601562 -6.289062 L 5.402344 -20.601562 L -0.125 -20.601562 L 7.941406 -0.558594 Z M 4.144531 8.867188 "/></g></g></g><g fill="#ffffff" fill-opacity="1"><g transform="translate(134.834806, 238.959146)"><g><path d="M 1.414062 0 L 5.015625 0 C 6.660156 0 8.253906 -0.855469 8.253906 -2.796875 C 8.253906 -4.015625 7.523438 -4.941406 6.539062 -5.355469 C 7.203125 -5.734375 7.761719 -6.449219 7.761719 -7.480469 C 7.761719 -9.394531 6.105469 -10.078125 4.527344 -10.078125 L 1.414062 -10.078125 Z M 2.851562 -5.820312 L 2.851562 -8.773438 L 4.550781 -8.773438 C 5.542969 -8.773438 6.355469 -8.417969 6.355469 -7.355469 C 6.355469 -6.21875 5.542969 -5.820312 4.613281 -5.820312 Z M 2.851562 -1.363281 L 2.851562 -4.550781 L 5.019531 -4.550781 C 6.027344 -4.550781 6.824219 -4.035156 6.824219 -2.925781 C 6.824219 -1.769531 6.046875 -1.363281 5.042969 -1.363281 Z M 2.851562 -1.363281 "/></g></g></g><g fill="#ffffff" fill-opacity="1"><g transform="translate(147.310428, 238.959146)"><g><path d="M 3.445312 0.148438 C 4.4375 0.148438 5.226562 -0.390625 5.621094 -1.035156 L 5.621094 0 L 7.011719 0 L 7.011719 -7.125 L 5.621094 -7.125 L 5.621094 -3.523438 C 5.621094 -1.820312 4.707031 -1.0625 3.714844 -1.0625 C 2.574219 -1.0625 2.316406 -2.011719 2.316406 -3.101562 L 2.316406 -7.125 L 0.921875 -7.125 L 0.921875 -3.167969 C 0.921875 -1.21875 1.667969 0.148438 3.445312 0.148438 Z M 3.445312 0.148438 "/></g></g></g><g fill="#ffffff" fill-opacity="1"><g transform="translate(158.951535, 238.959146)"><g><path d="M 3.179688 0.144531 C 4.464844 0.144531 5.777344 -0.570312 5.777344 -2.132812 C 5.777344 -4.742188 2.039062 -3.980469 2.039062 -5.363281 C 2.039062 -5.828125 2.460938 -6.175781 3.132812 -6.175781 C 3.902344 -6.175781 4.363281 -5.75 4.644531 -5.214844 L 5.691406 -5.792969 C 5.207031 -6.699219 4.335938 -7.273438 3.179688 -7.273438 C 1.890625 -7.273438 0.742188 -6.570312 0.742188 -5.183594 C 0.742188 -2.726562 4.429688 -3.601562 4.429688 -2.019531 C 4.429688 -1.433594 3.953125 -1 3.144531 -1 C 2.191406 -1 1.710938 -1.617188 1.492188 -2.261719 L 0.363281 -1.734375 C 0.699219 -0.714844 1.761719 0.144531 3.179688 0.144531 Z M 3.179688 0.144531 "/></g></g></g><g fill="#ffffff" fill-opacity="1"><g transform="translate(168.795229, 238.959146)"><g><path d="M 1.070312 -8.59375 L 2.5625 -8.59375 L 2.5625 -10.078125 L 1.070312 -10.078125 Z M 1.125 0 L 2.503906 0 L 2.503906 -7.125 L 1.125 -7.125 Z M 1.125 0 "/></g></g></g><g fill="#ffffff" fill-opacity="1"><g transform="translate(175.935666, 238.959146)"><g><path d="M 1.125 0 L 2.496094 0 L 2.496094 -3.792969 C 2.496094 -5.3125 3.265625 -6.027344 4.316406 -6.027344 C 5.398438 -6.027344 5.8125 -5.105469 5.8125 -4.152344 L 5.8125 0 L 7.183594 0 L 7.183594 -4.308594 C 7.183594 -5.839844 6.476562 -7.261719 4.699219 -7.261719 C 3.824219 -7.261719 3.015625 -6.847656 2.496094 -6.078125 L 2.496094 -7.125 L 1.125 -7.125 Z M 1.125 0 "/></g></g></g><g fill="#ffffff" fill-opacity="1"><g transform="translate(187.56964, 238.959146)"><g><path d="M 3.929688 0.121094 C 5.09375 0.121094 5.96875 -0.25 6.746094 -1.070312 L 5.792969 -1.875 C 5.265625 -1.296875 4.664062 -1.113281 3.929688 -1.113281 C 2.660156 -1.113281 2.054688 -1.988281 1.988281 -3.109375 L 6.917969 -3.109375 C 6.941406 -3.222656 6.960938 -3.480469 6.960938 -3.714844 C 6.960938 -5.335938 6.210938 -7.246094 3.808594 -7.246094 C 1.582031 -7.246094 0.527344 -5.414062 0.527344 -3.53125 C 0.527344 -1.605469 1.625 0.121094 3.929688 0.121094 Z M 1.988281 -4.160156 C 2.089844 -5.214844 2.632812 -6.097656 3.800781 -6.097656 C 5.007812 -6.097656 5.554688 -5.242188 5.621094 -4.160156 Z M 1.988281 -4.160156 "/></g></g></g><g fill="#ffffff" fill-opacity="1"><g transform="translate(198.575949, 238.959146)"><g><path d="M 3.179688 0.144531 C 4.464844 0.144531 5.777344 -0.570312 5.777344 -2.132812 C 5.777344 -4.742188 2.039062 -3.980469 2.039062 -5.363281 C 2.039062 -5.828125 2.460938 -6.175781 3.132812 -6.175781 C 3.902344 -6.175781 4.363281 -5.75 4.644531 -5.214844 L 5.691406 -5.792969 C 5.207031 -6.699219 4.335938 -7.273438 3.179688 -7.273438 C 1.890625 -7.273438 0.742188 -6.570312 0.742188 -5.183594 C 0.742188 -2.726562 4.429688 -3.601562 4.429688 -2.019531 C 4.429688 -1.433594 3.953125 -1 3.144531 -1 C 2.191406 -1 1.710938 -1.617188 1.492188 -2.261719 L 0.363281 -1.734375 C 0.699219 -0.714844 1.761719 0.144531 3.179688 0.144531 Z M 3.179688 0.144531 "/></g></g></g><g fill="#ffffff" fill-opacity="1"><g transform="translate(208.419641, 238.959146)"><g><path d="M 3.179688 0.144531 C 4.464844 0.144531 5.777344 -0.570312 5.777344 -2.132812 C 5.777344 -4.742188 2.039062 -3.980469 2.039062 -5.363281 C 2.039062 -5.828125 2.460938 -6.175781 3.132812 -6.175781 C 3.902344 -6.175781 4.363281 -5.75 4.644531 -5.214844 L 5.691406 -5.792969 C 5.207031 -6.699219 4.335938 -7.273438 3.179688 -7.273438 C 1.890625 -7.273438 0.742188 -6.570312 0.742188 -5.183594 C 0.742188 -2.726562 4.429688 -3.601562 4.429688 -2.019531 C 4.429688 -1.433594 3.953125 -1 3.144531 -1 C 2.191406 -1 1.710938 -1.617188 1.492188 -2.261719 L 0.363281 -1.734375 C 0.699219 -0.714844 1.761719 0.144531 3.179688 0.144531 Z M 3.179688 0.144531 "/></g></g></g><g fill="#ffffff" fill-opacity="1"><g transform="translate(218.263332, 238.959146)"><g/></g></g><g fill="#ffffff" fill-opacity="1"><g transform="translate(225.467963, 238.959146)"><g><path d="M 1.414062 0 L 2.824219 0 L 2.824219 -8.367188 L 5.605469 -0.878906 L 7.082031 -0.878906 L 9.863281 -8.367188 L 9.863281 0 L 11.277344 0 L 11.277344 -10.078125 L 9.152344 -10.078125 L 6.332031 -2.417969 L 3.539062 -10.078125 L 1.414062 -10.078125 Z M 1.414062 0 "/></g></g></g><g fill="#ffffff" fill-opacity="1"><g transform="translate(241.6668, 238.959146)"><g><path d="M 2.917969 0.144531 C 3.851562 0.144531 4.722656 -0.222656 5.285156 -1.207031 L 5.355469 0 L 6.503906 0 L 6.503906 -4.351562 C 6.503906 -6.085938 5.457031 -7.273438 3.582031 -7.273438 C 2.296875 -7.273438 1.40625 -6.710938 0.75 -5.796875 L 1.78125 -5.027344 C 2.109375 -5.535156 2.695312 -6.070312 3.617188 -6.070312 C 4.734375 -6.070312 5.207031 -5.292969 5.207031 -4.160156 L 3.472656 -4.160156 C 1.648438 -4.160156 0.476562 -3.566406 0.476562 -2.082031 C 0.476562 -0.671875 1.519531 0.144531 2.917969 0.144531 Z M 3.09375 -1.027344 C 2.390625 -1.027344 1.898438 -1.371094 1.898438 -2.039062 C 1.898438 -2.753906 2.453125 -3.136719 3.574219 -3.136719 L 5.207031 -3.136719 C 5.191406 -2.109375 4.335938 -1.027344 3.09375 -1.027344 Z M 3.09375 -1.027344 "/></g></g></g><g fill="#ffffff" fill-opacity="1"><g transform="translate(252.608912, 238.959146)"><g><path d="M 1.125 0 L 2.46875 0 L 2.46875 -3.300781 C 2.46875 -5.0625 3.253906 -5.941406 4.28125 -5.941406 C 4.59375 -5.941406 4.871094 -5.855469 5.105469 -5.675781 L 5.714844 -6.839844 C 5.414062 -7.109375 4.980469 -7.273438 4.492188 -7.273438 C 3.644531 -7.273438 2.824219 -6.761719 2.480469 -5.890625 L 2.480469 -7.125 L 1.125 -7.125 Z M 1.125 0 "/></g></g></g><g fill="#ffffff" fill-opacity="1"><g transform="translate(261.860605, 238.959146)"><g><path d="M 1.140625 0 L 2.523438 0 L 2.523438 -2.089844 L 3.851562 -3.558594 L 5.984375 0 L 7.625 0 L 4.75 -4.445312 L 7.238281 -7.125 L 5.46875 -7.125 L 2.523438 -3.695312 L 2.523438 -10.078125 L 1.140625 -10.078125 Z M 1.140625 0 "/></g></g></g><g fill="#ffffff" fill-opacity="1"><g transform="translate(273.080896, 238.959146)"><g><path d="M 3.929688 0.121094 C 5.09375 0.121094 5.96875 -0.25 6.746094 -1.070312 L 5.792969 -1.875 C 5.265625 -1.296875 4.664062 -1.113281 3.929688 -1.113281 C 2.660156 -1.113281 2.054688 -1.988281 1.988281 -3.109375 L 6.917969 -3.109375 C 6.941406 -3.222656 6.960938 -3.480469 6.960938 -3.714844 C 6.960938 -5.335938 6.210938 -7.246094 3.808594 -7.246094 C 1.582031 -7.246094 0.527344 -5.414062 0.527344 -3.53125 C 0.527344 -1.605469 1.625 0.121094 3.929688 0.121094 Z M 1.988281 -4.160156 C 2.089844 -5.214844 2.632812 -6.097656 3.800781 -6.097656 C 5.007812 -6.097656 5.554688 -5.242188 5.621094 -4.160156 Z M 1.988281 -4.160156 "/></g></g></g><g fill="#ffffff" fill-opacity="1"><g transform="translate(284.087209, 238.959146)"><g><path d="M 3.359375 0.144531 C 3.824219 0.144531 4.265625 0.0507812 4.472656 -0.0351562 L 4.472656 -1.261719 C 4.242188 -1.148438 3.921875 -1.042969 3.625 -1.042969 C 3.136719 -1.042969 2.765625 -1.332031 2.765625 -2.070312 L 2.765625 -5.976562 L 4.570312 -5.976562 L 4.570312 -7.125 L 2.765625 -7.125 L 2.765625 -9.921875 L 1.414062 -8.808594 L 1.414062 -7.125 L 0.25 -7.125 L 0.25 -5.976562 L 1.398438 -5.976562 L 1.398438 -1.925781 C 1.398438 -0.671875 2.03125 0.144531 3.359375 0.144531 Z M 3.359375 0.144531 "/></g></g></g><g fill="#ffffff" fill-opacity="1"><g transform="translate(292.668438, 238.959146)"><g><path d="M 1.070312 -8.59375 L 2.5625 -8.59375 L 2.5625 -10.078125 L 1.070312 -10.078125 Z M 1.125 0 L 2.503906 0 L 2.503906 -7.125 L 1.125 -7.125 Z M 1.125 0 "/></g></g></g><g fill="#ffffff" fill-opacity="1"><g transform="translate(299.808882, 238.959146)"><g><path d="M 1.125 0 L 2.496094 0 L 2.496094 -3.792969 C 2.496094 -5.3125 3.265625 -6.027344 4.316406 -6.027344 C 5.398438 -6.027344 5.8125 -5.105469 5.8125 -4.152344 L 5.8125 0 L 7.183594 0 L 7.183594 -4.308594 C 7.183594 -5.839844 6.476562 -7.261719 4.699219 -7.261719 C 3.824219 -7.261719 3.015625 -6.847656 2.496094 -6.078125 L 2.496094 -7.125 L 1.125 -7.125 Z M 1.125 0 "/></g></g></g><g fill="#ffffff" fill-opacity="1"><g transform="translate(311.442864, 238.959146)"><g><path d="M 4.007812 -1.011719 C 2.875 -1.164062 1.988281 -1.277344 1.988281 -1.945312 C 1.988281 -2.148438 2.082031 -2.296875 2.253906 -2.410156 C 2.652344 -2.226562 3.109375 -2.125 3.601562 -2.125 C 5.121094 -2.125 6.355469 -3.089844 6.355469 -4.644531 C 6.355469 -5.085938 6.253906 -5.492188 6.070312 -5.839844 L 7.167969 -6.710938 L 6.417969 -7.640625 L 5.347656 -6.691406 C 4.871094 -7.046875 4.257812 -7.246094 3.574219 -7.246094 C 2.039062 -7.246094 0.785156 -6.226562 0.785156 -4.699219 C 0.785156 -4.058594 1.003906 -3.496094 1.382812 -3.058594 C 0.96875 -2.703125 0.792969 -2.273438 0.792969 -1.746094 C 0.792969 -1.035156 1.125 -0.59375 1.605469 -0.3125 L 0.707031 0.550781 C 0.691406 0.636719 0.683594 0.714844 0.683594 0.839844 C 0.683594 2.246094 1.90625 3.316406 3.878906 3.316406 C 5.5 3.316406 6.867188 2.582031 6.867188 1.046875 C 6.867188 -0.578125 5.40625 -0.820312 4.007812 -1.011719 Z M 3.59375 -6.167969 C 4.464844 -6.167969 4.980469 -5.527344 4.980469 -4.699219 C 4.980469 -3.84375 4.464844 -3.257812 3.59375 -3.257812 C 2.71875 -3.257812 2.203125 -3.84375 2.203125 -4.699219 C 2.203125 -5.511719 2.71875 -6.167969 3.59375 -6.167969 Z M 3.929688 2.175781 C 2.71875 2.175781 1.941406 1.617188 1.890625 0.871094 L 2.496094 0.0351562 C 2.851562 0.121094 3.21875 0.179688 3.558594 0.226562 C 4.730469 0.398438 5.59375 0.457031 5.59375 1.183594 C 5.59375 1.839844 4.851562 2.175781 3.929688 2.175781 Z M 3.929688 2.175781 "/></g></g></g></svg>